<mxfile host="app.diagrams.net" modified="2022-11-22T09:55:09.960Z" agent="5.0 (Windows NT 10.0; Win64; x64) AppleWebKit/537.36 (KHTML, like Gecko) Chrome/107.0.0.0 Safari/537.36 Edg/107.0.1418.52" etag="esNeFSx4cZ-WCriP2R4A" version="20.5.3" type="github">
  <diagram id="na5SozsLlkxDMUfzw_OF" name="Page-1">
    <mxGraphModel dx="3154" dy="2866" grid="1" gridSize="10" guides="1" tooltips="1" connect="1" arrows="1" fold="1" page="1" pageScale="1" pageWidth="850" pageHeight="1100" math="0" shadow="0">
      <root>
        <mxCell id="0" />
        <mxCell id="1" parent="0" />
        <mxCell id="ympd51Vh-eKGF469arWQ-28" value="&lt;br&gt;&lt;b&gt;create&lt;/b&gt;" style="html=1;dropTarget=0;" vertex="1" parent="1">
          <mxGeometry x="630" y="-30" width="180" height="90" as="geometry" />
        </mxCell>
        <mxCell id="ympd51Vh-eKGF469arWQ-29" value="" style="shape=module;jettyWidth=8;jettyHeight=4;" vertex="1" parent="ympd51Vh-eKGF469arWQ-28">
          <mxGeometry x="1" width="20" height="20" relative="1" as="geometry">
            <mxPoint x="-27" y="7" as="offset" />
          </mxGeometry>
        </mxCell>
        <mxCell id="ympd51Vh-eKGF469arWQ-30" value="Text" style="text;html=1;strokeColor=none;fillColor=none;align=center;verticalAlign=middle;whiteSpace=wrap;rounded=0;" vertex="1" parent="1">
          <mxGeometry x="830" y="300" width="60" height="30" as="geometry" />
        </mxCell>
        <mxCell id="ympd51Vh-eKGF469arWQ-31" value="t" style="verticalLabelPosition=bottom;verticalAlign=top;html=1;shape=mxgraph.basic.rect;fillColor2=none;strokeWidth=1;size=20;indent=5;" vertex="1" parent="1">
          <mxGeometry x="260" y="700" width="1280" height="610" as="geometry" />
        </mxCell>
        <mxCell id="ympd51Vh-eKGF469arWQ-32" value="«service»&lt;br&gt;&lt;b&gt;Payment Transaction&lt;/b&gt;" style="html=1;dropTarget=0;" vertex="1" parent="1">
          <mxGeometry x="350" y="1060" width="180" height="90" as="geometry" />
        </mxCell>
        <mxCell id="ympd51Vh-eKGF469arWQ-33" value="" style="shape=module;jettyWidth=8;jettyHeight=4;" vertex="1" parent="ympd51Vh-eKGF469arWQ-32">
          <mxGeometry x="1" width="20" height="20" relative="1" as="geometry">
            <mxPoint x="-27" y="7" as="offset" />
          </mxGeometry>
        </mxCell>
        <mxCell id="ympd51Vh-eKGF469arWQ-34" value="«service»&lt;br&gt;&lt;b&gt;Payment Gateway Transaction&lt;/b&gt;" style="html=1;dropTarget=0;" vertex="1" parent="1">
          <mxGeometry x="570" y="1061" width="180" height="90" as="geometry" />
        </mxCell>
        <mxCell id="ympd51Vh-eKGF469arWQ-35" value="" style="shape=module;jettyWidth=8;jettyHeight=4;" vertex="1" parent="ympd51Vh-eKGF469arWQ-34">
          <mxGeometry x="1" width="20" height="20" relative="1" as="geometry">
            <mxPoint x="-27" y="7" as="offset" />
          </mxGeometry>
        </mxCell>
        <mxCell id="ympd51Vh-eKGF469arWQ-36" value="«service»&lt;br&gt;&lt;b&gt;User Notification Transaction&lt;/b&gt;" style="html=1;dropTarget=0;" vertex="1" parent="1">
          <mxGeometry x="790" y="1061" width="180" height="90" as="geometry" />
        </mxCell>
        <mxCell id="ympd51Vh-eKGF469arWQ-37" value="" style="shape=module;jettyWidth=8;jettyHeight=4;" vertex="1" parent="ympd51Vh-eKGF469arWQ-36">
          <mxGeometry x="1" width="20" height="20" relative="1" as="geometry">
            <mxPoint x="-27" y="7" as="offset" />
          </mxGeometry>
        </mxCell>
        <mxCell id="ympd51Vh-eKGF469arWQ-38" value="«service»&lt;br&gt;&lt;b&gt;Activity Transaction&lt;/b&gt;" style="html=1;dropTarget=0;" vertex="1" parent="1">
          <mxGeometry x="1012" y="1061" width="180" height="90" as="geometry" />
        </mxCell>
        <mxCell id="ympd51Vh-eKGF469arWQ-39" value="" style="shape=module;jettyWidth=8;jettyHeight=4;" vertex="1" parent="ympd51Vh-eKGF469arWQ-38">
          <mxGeometry x="1" width="20" height="20" relative="1" as="geometry">
            <mxPoint x="-27" y="7" as="offset" />
          </mxGeometry>
        </mxCell>
        <mxCell id="ympd51Vh-eKGF469arWQ-40" value="«service»&lt;br&gt;&lt;b&gt;OTPTransaction&lt;/b&gt;" style="html=1;dropTarget=0;" vertex="1" parent="1">
          <mxGeometry x="1222" y="1061" width="180" height="90" as="geometry" />
        </mxCell>
        <mxCell id="ympd51Vh-eKGF469arWQ-41" value="" style="shape=module;jettyWidth=8;jettyHeight=4;" vertex="1" parent="ympd51Vh-eKGF469arWQ-40">
          <mxGeometry x="1" width="20" height="20" relative="1" as="geometry">
            <mxPoint x="-27" y="7" as="offset" />
          </mxGeometry>
        </mxCell>
        <mxCell id="ympd51Vh-eKGF469arWQ-45" value="&lt;br&gt;&lt;b&gt;Payment &lt;br&gt;Transaction &lt;br&gt;Controller&lt;/b&gt;" style="html=1;dropTarget=0;" vertex="1" parent="1">
          <mxGeometry x="350" y="870" width="180" height="90" as="geometry" />
        </mxCell>
        <mxCell id="ympd51Vh-eKGF469arWQ-46" value="" style="shape=module;jettyWidth=8;jettyHeight=4;" vertex="1" parent="ympd51Vh-eKGF469arWQ-45">
          <mxGeometry x="1" width="20" height="20" relative="1" as="geometry">
            <mxPoint x="-27" y="7" as="offset" />
          </mxGeometry>
        </mxCell>
        <mxCell id="ympd51Vh-eKGF469arWQ-47" value="&lt;b&gt;Payment Gateway &lt;br&gt;Transaction&lt;br&gt;&lt;/b&gt;&lt;b&gt;&amp;nbsp;Controller&lt;/b&gt;" style="html=1;dropTarget=0;" vertex="1" parent="1">
          <mxGeometry x="570" y="870" width="180" height="90" as="geometry" />
        </mxCell>
        <mxCell id="ympd51Vh-eKGF469arWQ-48" value="" style="shape=module;jettyWidth=8;jettyHeight=4;" vertex="1" parent="ympd51Vh-eKGF469arWQ-47">
          <mxGeometry x="1" width="20" height="20" relative="1" as="geometry">
            <mxPoint x="-27" y="7" as="offset" />
          </mxGeometry>
        </mxCell>
        <mxCell id="ympd51Vh-eKGF469arWQ-49" value="&lt;br&gt;&lt;b&gt;User Notification &lt;br&gt;Transaction&lt;br&gt;&lt;/b&gt;&lt;b&gt;Controller&lt;/b&gt;" style="html=1;dropTarget=0;" vertex="1" parent="1">
          <mxGeometry x="792" y="872" width="180" height="90" as="geometry" />
        </mxCell>
        <mxCell id="ympd51Vh-eKGF469arWQ-50" value="" style="shape=module;jettyWidth=8;jettyHeight=4;" vertex="1" parent="ympd51Vh-eKGF469arWQ-49">
          <mxGeometry x="1" width="20" height="20" relative="1" as="geometry">
            <mxPoint x="-27" y="7" as="offset" />
          </mxGeometry>
        </mxCell>
        <mxCell id="ympd51Vh-eKGF469arWQ-51" value="&lt;b&gt;Activity &lt;br&gt;Transaction&lt;/b&gt;&lt;b&gt;&amp;nbsp;&lt;br&gt;Controller&lt;/b&gt;" style="html=1;dropTarget=0;" vertex="1" parent="1">
          <mxGeometry x="1012" y="872" width="180" height="90" as="geometry" />
        </mxCell>
        <mxCell id="ympd51Vh-eKGF469arWQ-52" value="" style="shape=module;jettyWidth=8;jettyHeight=4;" vertex="1" parent="ympd51Vh-eKGF469arWQ-51">
          <mxGeometry x="1" width="20" height="20" relative="1" as="geometry">
            <mxPoint x="-27" y="7" as="offset" />
          </mxGeometry>
        </mxCell>
        <mxCell id="ympd51Vh-eKGF469arWQ-53" value="&lt;b&gt;OTP &lt;br&gt;Transaction &lt;br&gt;Controller&lt;/b&gt;" style="html=1;dropTarget=0;" vertex="1" parent="1">
          <mxGeometry x="1221" y="872" width="180" height="90" as="geometry" />
        </mxCell>
        <mxCell id="ympd51Vh-eKGF469arWQ-54" value="" style="shape=module;jettyWidth=8;jettyHeight=4;" vertex="1" parent="ympd51Vh-eKGF469arWQ-53">
          <mxGeometry x="1" width="20" height="20" relative="1" as="geometry">
            <mxPoint x="-27" y="7" as="offset" />
          </mxGeometry>
        </mxCell>
        <mxCell id="ympd51Vh-eKGF469arWQ-66" value="" style="rounded=0;orthogonalLoop=1;jettySize=auto;html=1;endArrow=none;endFill=0;sketch=0;sourcePerimeterSpacing=0;targetPerimeterSpacing=0;exitX=0.5;exitY=0;exitDx=0;exitDy=0;" edge="1" target="ympd51Vh-eKGF469arWQ-68" parent="1" source="ympd51Vh-eKGF469arWQ-34">
          <mxGeometry relative="1" as="geometry">
            <mxPoint x="630" y="1015" as="sourcePoint" />
          </mxGeometry>
        </mxCell>
        <mxCell id="ympd51Vh-eKGF469arWQ-67" value="" style="rounded=0;orthogonalLoop=1;jettySize=auto;html=1;endArrow=halfCircle;endFill=0;entryX=0.5;entryY=0.5;endSize=6;strokeWidth=1;sketch=0;exitX=0.5;exitY=1;exitDx=0;exitDy=0;" edge="1" target="ympd51Vh-eKGF469arWQ-68" parent="1" source="ympd51Vh-eKGF469arWQ-47">
          <mxGeometry relative="1" as="geometry">
            <mxPoint x="670" y="1015" as="sourcePoint" />
          </mxGeometry>
        </mxCell>
        <mxCell id="ympd51Vh-eKGF469arWQ-68" value="" style="ellipse;whiteSpace=wrap;html=1;align=center;aspect=fixed;resizable=0;points=[];outlineConnect=0;sketch=0;" vertex="1" parent="1">
          <mxGeometry x="655" y="1010" width="10" height="10" as="geometry" />
        </mxCell>
        <mxCell id="ympd51Vh-eKGF469arWQ-73" value="" style="rounded=0;orthogonalLoop=1;jettySize=auto;html=1;endArrow=none;endFill=0;sketch=0;sourcePerimeterSpacing=0;targetPerimeterSpacing=0;exitX=0.5;exitY=0;exitDx=0;exitDy=0;" edge="1" target="ympd51Vh-eKGF469arWQ-75" parent="1" source="ympd51Vh-eKGF469arWQ-32">
          <mxGeometry relative="1" as="geometry">
            <mxPoint x="424" y="1014" as="sourcePoint" />
          </mxGeometry>
        </mxCell>
        <mxCell id="ympd51Vh-eKGF469arWQ-74" value="" style="rounded=0;orthogonalLoop=1;jettySize=auto;html=1;endArrow=halfCircle;endFill=0;entryX=0.5;entryY=0.5;endSize=6;strokeWidth=1;sketch=0;" edge="1" target="ympd51Vh-eKGF469arWQ-75" parent="1" source="ympd51Vh-eKGF469arWQ-45">
          <mxGeometry relative="1" as="geometry">
            <mxPoint x="464" y="1014" as="sourcePoint" />
          </mxGeometry>
        </mxCell>
        <mxCell id="ympd51Vh-eKGF469arWQ-75" value="" style="ellipse;whiteSpace=wrap;html=1;align=center;aspect=fixed;resizable=0;points=[];outlineConnect=0;sketch=0;" vertex="1" parent="1">
          <mxGeometry x="436" y="1008" width="10" height="10" as="geometry" />
        </mxCell>
        <mxCell id="ympd51Vh-eKGF469arWQ-76" value="" style="rounded=0;orthogonalLoop=1;jettySize=auto;html=1;endArrow=none;endFill=0;sketch=0;sourcePerimeterSpacing=0;targetPerimeterSpacing=0;exitX=0.5;exitY=0;exitDx=0;exitDy=0;" edge="1" target="ympd51Vh-eKGF469arWQ-78" parent="1" source="ympd51Vh-eKGF469arWQ-36">
          <mxGeometry relative="1" as="geometry">
            <mxPoint x="858" y="1014" as="sourcePoint" />
          </mxGeometry>
        </mxCell>
        <mxCell id="ympd51Vh-eKGF469arWQ-77" value="" style="rounded=0;orthogonalLoop=1;jettySize=auto;html=1;endArrow=halfCircle;endFill=0;entryX=0.5;entryY=0.5;endSize=6;strokeWidth=1;sketch=0;" edge="1" target="ympd51Vh-eKGF469arWQ-78" parent="1" source="ympd51Vh-eKGF469arWQ-49">
          <mxGeometry relative="1" as="geometry">
            <mxPoint x="898" y="1014" as="sourcePoint" />
          </mxGeometry>
        </mxCell>
        <mxCell id="ympd51Vh-eKGF469arWQ-78" value="" style="ellipse;whiteSpace=wrap;html=1;align=center;aspect=fixed;resizable=0;points=[];outlineConnect=0;sketch=0;" vertex="1" parent="1">
          <mxGeometry x="875" y="1009" width="10" height="10" as="geometry" />
        </mxCell>
        <mxCell id="ympd51Vh-eKGF469arWQ-83" value="" style="rounded=0;orthogonalLoop=1;jettySize=auto;html=1;endArrow=none;endFill=0;sketch=0;sourcePerimeterSpacing=0;targetPerimeterSpacing=0;" edge="1" target="ympd51Vh-eKGF469arWQ-85" parent="1">
          <mxGeometry relative="1" as="geometry">
            <mxPoint x="1103" y="1060" as="sourcePoint" />
            <mxPoint x="1104.8001598097724" y="1018.9960047556883" as="targetPoint" />
          </mxGeometry>
        </mxCell>
        <mxCell id="ympd51Vh-eKGF469arWQ-84" value="" style="rounded=0;orthogonalLoop=1;jettySize=auto;html=1;endArrow=halfCircle;endFill=0;entryX=0.5;entryY=0.5;endSize=6;strokeWidth=1;sketch=0;exitX=0.5;exitY=1;exitDx=0;exitDy=0;" edge="1" target="ympd51Vh-eKGF469arWQ-85" parent="1" source="ympd51Vh-eKGF469arWQ-51">
          <mxGeometry relative="1" as="geometry">
            <mxPoint x="1116" y="1005" as="sourcePoint" />
          </mxGeometry>
        </mxCell>
        <mxCell id="ympd51Vh-eKGF469arWQ-85" value="" style="ellipse;whiteSpace=wrap;html=1;align=center;aspect=fixed;resizable=0;points=[];outlineConnect=0;sketch=0;" vertex="1" parent="1">
          <mxGeometry x="1097" y="1009" width="10" height="10" as="geometry" />
        </mxCell>
        <mxCell id="ympd51Vh-eKGF469arWQ-89" value="" style="rounded=0;orthogonalLoop=1;jettySize=auto;html=1;endArrow=none;endFill=0;sketch=0;sourcePerimeterSpacing=0;targetPerimeterSpacing=0;exitX=0.5;exitY=0;exitDx=0;exitDy=0;" edge="1" target="ympd51Vh-eKGF469arWQ-91" parent="1" source="ympd51Vh-eKGF469arWQ-40">
          <mxGeometry relative="1" as="geometry">
            <mxPoint x="1070" y="1065" as="sourcePoint" />
          </mxGeometry>
        </mxCell>
        <mxCell id="ympd51Vh-eKGF469arWQ-90" value="" style="rounded=0;orthogonalLoop=1;jettySize=auto;html=1;endArrow=halfCircle;endFill=0;entryX=0.5;entryY=0.5;endSize=6;strokeWidth=1;sketch=0;exitX=0.5;exitY=1;exitDx=0;exitDy=0;" edge="1" target="ympd51Vh-eKGF469arWQ-91" parent="1" source="ympd51Vh-eKGF469arWQ-53">
          <mxGeometry relative="1" as="geometry">
            <mxPoint x="1110" y="1065" as="sourcePoint" />
          </mxGeometry>
        </mxCell>
        <mxCell id="ympd51Vh-eKGF469arWQ-91" value="" style="ellipse;whiteSpace=wrap;html=1;align=center;aspect=fixed;resizable=0;points=[];outlineConnect=0;sketch=0;" vertex="1" parent="1">
          <mxGeometry x="1307" y="1006" width="10" height="10" as="geometry" />
        </mxCell>
        <mxCell id="ympd51Vh-eKGF469arWQ-92" value="" style="verticalLabelPosition=bottom;verticalAlign=top;html=1;shape=mxgraph.basic.rect;fillColor2=none;strokeWidth=1;size=20;indent=5;" vertex="1" parent="1">
          <mxGeometry x="420" y="850" width="40" height="40" as="geometry" />
        </mxCell>
        <mxCell id="ympd51Vh-eKGF469arWQ-93" value="" style="verticalLabelPosition=bottom;verticalAlign=top;html=1;shape=mxgraph.basic.rect;fillColor2=none;strokeWidth=1;size=20;indent=5;" vertex="1" parent="1">
          <mxGeometry x="640" y="850" width="40" height="40" as="geometry" />
        </mxCell>
        <mxCell id="ympd51Vh-eKGF469arWQ-94" value="" style="verticalLabelPosition=bottom;verticalAlign=top;html=1;shape=mxgraph.basic.rect;fillColor2=none;strokeWidth=1;size=20;indent=5;" vertex="1" parent="1">
          <mxGeometry x="862" y="850" width="40" height="40" as="geometry" />
        </mxCell>
        <mxCell id="ympd51Vh-eKGF469arWQ-95" value="" style="verticalLabelPosition=bottom;verticalAlign=top;html=1;shape=mxgraph.basic.rect;fillColor2=none;strokeWidth=1;size=20;indent=5;" vertex="1" parent="1">
          <mxGeometry x="1080" y="850" width="40" height="40" as="geometry" />
        </mxCell>
        <mxCell id="ympd51Vh-eKGF469arWQ-96" value="" style="verticalLabelPosition=bottom;verticalAlign=top;html=1;shape=mxgraph.basic.rect;fillColor2=none;strokeWidth=1;size=20;indent=5;" vertex="1" parent="1">
          <mxGeometry x="1290" y="850" width="40" height="40" as="geometry" />
        </mxCell>
        <mxCell id="ympd51Vh-eKGF469arWQ-97" value="" style="line;strokeWidth=1;rotatable=0;dashed=0;labelPosition=right;align=left;verticalAlign=middle;spacingTop=0;spacingLeft=6;points=[];portConstraint=eastwest;direction=south;" vertex="1" parent="1">
          <mxGeometry x="435" y="740" width="10" height="110" as="geometry" />
        </mxCell>
        <mxCell id="ympd51Vh-eKGF469arWQ-98" value="" style="verticalLabelPosition=bottom;verticalAlign=top;html=1;shape=mxgraph.flowchart.on-page_reference;" vertex="1" parent="1">
          <mxGeometry x="320" y="725" width="30" height="30" as="geometry" />
        </mxCell>
        <mxCell id="ympd51Vh-eKGF469arWQ-99" value="" style="line;strokeWidth=1;rotatable=0;dashed=0;labelPosition=right;align=left;verticalAlign=middle;spacingTop=0;spacingLeft=6;points=[];portConstraint=eastwest;direction=west;" vertex="1" parent="1">
          <mxGeometry x="350" y="735" width="90" height="10" as="geometry" />
        </mxCell>
        <mxCell id="ympd51Vh-eKGF469arWQ-100" value="" style="line;strokeWidth=1;rotatable=0;dashed=0;labelPosition=right;align=left;verticalAlign=middle;spacingTop=0;spacingLeft=6;points=[];portConstraint=eastwest;direction=west;" vertex="1" parent="1">
          <mxGeometry x="120" y="735" width="200" height="10" as="geometry" />
        </mxCell>
        <mxCell id="ympd51Vh-eKGF469arWQ-101" value="" style="line;strokeWidth=1;rotatable=0;dashed=0;labelPosition=right;align=left;verticalAlign=middle;spacingTop=0;spacingLeft=6;points=[];portConstraint=eastwest;direction=south;" vertex="1" parent="1">
          <mxGeometry x="655" y="740" width="10" height="110" as="geometry" />
        </mxCell>
        <mxCell id="ympd51Vh-eKGF469arWQ-102" value="" style="verticalLabelPosition=bottom;verticalAlign=top;html=1;shape=mxgraph.flowchart.on-page_reference;" vertex="1" parent="1">
          <mxGeometry x="645" y="748" width="30" height="30" as="geometry" />
        </mxCell>
        <mxCell id="ympd51Vh-eKGF469arWQ-104" value="" style="line;strokeWidth=1;rotatable=0;dashed=0;labelPosition=right;align=left;verticalAlign=middle;spacingTop=0;spacingLeft=6;points=[];portConstraint=eastwest;direction=south;" vertex="1" parent="1">
          <mxGeometry x="655" y="630" width="10" height="110" as="geometry" />
        </mxCell>
        <mxCell id="ympd51Vh-eKGF469arWQ-105" value="" style="line;strokeWidth=1;rotatable=0;dashed=0;labelPosition=right;align=left;verticalAlign=middle;spacingTop=0;spacingLeft=6;points=[];portConstraint=eastwest;direction=south;" vertex="1" parent="1">
          <mxGeometry x="875" y="740" width="10" height="110" as="geometry" />
        </mxCell>
        <mxCell id="ympd51Vh-eKGF469arWQ-106" value="" style="verticalLabelPosition=bottom;verticalAlign=top;html=1;shape=mxgraph.flowchart.on-page_reference;" vertex="1" parent="1">
          <mxGeometry x="865" y="753" width="30" height="30" as="geometry" />
        </mxCell>
        <mxCell id="ympd51Vh-eKGF469arWQ-107" value="" style="line;strokeWidth=1;rotatable=0;dashed=0;labelPosition=right;align=left;verticalAlign=middle;spacingTop=0;spacingLeft=6;points=[];portConstraint=eastwest;direction=south;" vertex="1" parent="1">
          <mxGeometry x="875" y="633" width="10" height="110" as="geometry" />
        </mxCell>
        <mxCell id="ympd51Vh-eKGF469arWQ-108" value="" style="line;strokeWidth=1;rotatable=0;dashed=0;labelPosition=right;align=left;verticalAlign=middle;spacingTop=0;spacingLeft=6;points=[];portConstraint=eastwest;direction=south;" vertex="1" parent="1">
          <mxGeometry x="1095" y="740" width="10" height="110" as="geometry" />
        </mxCell>
        <mxCell id="ympd51Vh-eKGF469arWQ-109" value="" style="verticalLabelPosition=bottom;verticalAlign=top;html=1;shape=mxgraph.flowchart.on-page_reference;" vertex="1" parent="1">
          <mxGeometry x="1085" y="757" width="30" height="30" as="geometry" />
        </mxCell>
        <mxCell id="ympd51Vh-eKGF469arWQ-110" value="" style="line;strokeWidth=1;rotatable=0;dashed=0;labelPosition=right;align=left;verticalAlign=middle;spacingTop=0;spacingLeft=6;points=[];portConstraint=eastwest;direction=south;" vertex="1" parent="1">
          <mxGeometry x="1095" y="600" width="10" height="150" as="geometry" />
        </mxCell>
        <mxCell id="ympd51Vh-eKGF469arWQ-111" value="" style="verticalLabelPosition=bottom;verticalAlign=top;html=1;shape=mxgraph.flowchart.on-page_reference;" vertex="1" parent="1">
          <mxGeometry x="1380" y="735" width="30" height="30" as="geometry" />
        </mxCell>
        <mxCell id="ympd51Vh-eKGF469arWQ-112" value="" style="line;strokeWidth=1;rotatable=0;dashed=0;labelPosition=right;align=left;verticalAlign=middle;spacingTop=0;spacingLeft=6;points=[];portConstraint=eastwest;direction=west;" vertex="1" parent="1">
          <mxGeometry x="1410" y="745" width="200" height="10" as="geometry" />
        </mxCell>
        <mxCell id="ympd51Vh-eKGF469arWQ-113" value="" style="line;strokeWidth=1;rotatable=0;dashed=0;labelPosition=right;align=left;verticalAlign=middle;spacingTop=0;spacingLeft=6;points=[];portConstraint=eastwest;direction=north;" vertex="1" parent="1">
          <mxGeometry x="1307" y="750" width="10" height="100" as="geometry" />
        </mxCell>
        <mxCell id="ympd51Vh-eKGF469arWQ-114" value="" style="line;strokeWidth=1;rotatable=0;dashed=0;labelPosition=right;align=left;verticalAlign=middle;spacingTop=0;spacingLeft=6;points=[];portConstraint=eastwest;direction=west;" vertex="1" parent="1">
          <mxGeometry x="1310" y="745" width="70" height="10" as="geometry" />
        </mxCell>
        <mxCell id="ympd51Vh-eKGF469arWQ-115" value="Manage &#xa;Payment Transaction" style="text;strokeColor=none;fillColor=none;spacingLeft=4;spacingRight=4;overflow=hidden;rotatable=0;points=[[0,0.5],[1,0.5]];portConstraint=eastwest;fontSize=12;align=center;" vertex="1" parent="1">
          <mxGeometry x="428" y="799" width="150" height="45" as="geometry" />
        </mxCell>
        <mxCell id="ympd51Vh-eKGF469arWQ-117" value="Manage &#xa;Payment Gateway&#xa;Transaction" style="text;strokeColor=none;fillColor=none;spacingLeft=4;spacingRight=4;overflow=hidden;rotatable=0;points=[[0,0.5],[1,0.5]];portConstraint=eastwest;fontSize=12;align=center;" vertex="1" parent="1">
          <mxGeometry x="660" y="795" width="150" height="45" as="geometry" />
        </mxCell>
        <mxCell id="ympd51Vh-eKGF469arWQ-118" value="Manage &#xa;User Notification&#xa;Transaction" style="text;strokeColor=none;fillColor=none;spacingLeft=4;spacingRight=4;overflow=hidden;rotatable=0;points=[[0,0.5],[1,0.5]];portConstraint=eastwest;fontSize=12;align=center;" vertex="1" parent="1">
          <mxGeometry x="875" y="795" width="150" height="45" as="geometry" />
        </mxCell>
        <mxCell id="ympd51Vh-eKGF469arWQ-119" value="Manage &#xa;ActivityTransaction" style="text;strokeColor=none;fillColor=none;spacingLeft=4;spacingRight=4;overflow=hidden;rotatable=0;points=[[0,0.5],[1,0.5]];portConstraint=eastwest;fontSize=12;align=center;" vertex="1" parent="1">
          <mxGeometry x="1095" y="799" width="150" height="45" as="geometry" />
        </mxCell>
        <mxCell id="ympd51Vh-eKGF469arWQ-120" value="Manage &#xa;OTP Transaction" style="text;strokeColor=none;fillColor=none;spacingLeft=4;spacingRight=4;overflow=hidden;rotatable=0;points=[[0,0.5],[1,0.5]];portConstraint=eastwest;fontSize=12;align=center;" vertex="1" parent="1">
          <mxGeometry x="1317" y="795" width="150" height="45" as="geometry" />
        </mxCell>
        <mxCell id="ympd51Vh-eKGF469arWQ-121" value="" style="verticalLabelPosition=bottom;verticalAlign=top;html=1;shape=mxgraph.flowchart.on-page_reference;" vertex="1" parent="1">
          <mxGeometry x="424" y="1240" width="30" height="30" as="geometry" />
        </mxCell>
        <mxCell id="ympd51Vh-eKGF469arWQ-122" value="" style="line;strokeWidth=1;rotatable=0;dashed=0;labelPosition=right;align=left;verticalAlign=middle;spacingTop=0;spacingLeft=6;points=[];portConstraint=eastwest;direction=north;" vertex="1" parent="1">
          <mxGeometry x="399" y="1150" width="80" height="90" as="geometry" />
        </mxCell>
        <mxCell id="ympd51Vh-eKGF469arWQ-123" value="" style="line;strokeWidth=1;rotatable=0;dashed=0;labelPosition=right;align=left;verticalAlign=middle;spacingTop=0;spacingLeft=6;points=[];portConstraint=eastwest;direction=north;" vertex="1" parent="1">
          <mxGeometry x="399" y="1270" width="80" height="90" as="geometry" />
        </mxCell>
        <mxCell id="ympd51Vh-eKGF469arWQ-124" value="send&#xa;statement" style="text;strokeColor=none;fillColor=none;spacingLeft=4;spacingRight=4;overflow=hidden;rotatable=0;points=[[0,0.5],[1,0.5]];portConstraint=eastwest;fontSize=12;align=center;" vertex="1" parent="1">
          <mxGeometry x="399" y="1195" width="150" height="45" as="geometry" />
        </mxCell>
        <mxCell id="ympd51Vh-eKGF469arWQ-125" value="" style="line;strokeWidth=1;rotatable=0;dashed=0;labelPosition=right;align=left;verticalAlign=middle;spacingTop=0;spacingLeft=6;points=[];portConstraint=eastwest;direction=north;" vertex="1" parent="1">
          <mxGeometry x="730" y="910" width="80" height="280" as="geometry" />
        </mxCell>
        <mxCell id="ympd51Vh-eKGF469arWQ-128" value="" style="line;strokeWidth=1;rotatable=0;dashed=0;labelPosition=right;align=left;verticalAlign=middle;spacingTop=0;spacingLeft=6;points=[];portConstraint=eastwest;direction=east;" vertex="1" parent="1">
          <mxGeometry x="770" y="872" width="20" height="78" as="geometry" />
        </mxCell>
        <mxCell id="ympd51Vh-eKGF469arWQ-133" value="" style="rounded=0;orthogonalLoop=1;jettySize=auto;html=1;endArrow=halfCircle;endFill=0;entryX=0.5;entryY=0.5;endSize=6;strokeWidth=1;sketch=0;" edge="1" parent="1">
          <mxGeometry relative="1" as="geometry">
            <mxPoint x="770" y="1190" as="sourcePoint" />
            <mxPoint x="574" y="1190" as="targetPoint" />
          </mxGeometry>
        </mxCell>
        <mxCell id="ympd51Vh-eKGF469arWQ-134" value="" style="ellipse;whiteSpace=wrap;html=1;align=center;aspect=fixed;resizable=0;points=[];outlineConnect=0;sketch=0;" vertex="1" parent="1">
          <mxGeometry x="568" y="1185" width="10" height="10" as="geometry" />
        </mxCell>
        <mxCell id="ympd51Vh-eKGF469arWQ-135" value="" style="endArrow=none;html=1;rounded=0;" edge="1" parent="1">
          <mxGeometry relative="1" as="geometry">
            <mxPoint x="530" y="1104.83" as="sourcePoint" />
            <mxPoint x="550" y="1105" as="targetPoint" />
          </mxGeometry>
        </mxCell>
        <mxCell id="ympd51Vh-eKGF469arWQ-137" value="" style="line;strokeWidth=1;rotatable=0;dashed=0;labelPosition=right;align=left;verticalAlign=middle;spacingTop=0;spacingLeft=6;points=[];portConstraint=eastwest;direction=north;" vertex="1" parent="1">
          <mxGeometry x="510" y="1104" width="80" height="86" as="geometry" />
        </mxCell>
        <mxCell id="ympd51Vh-eKGF469arWQ-138" value="" style="endArrow=none;html=1;rounded=0;" edge="1" parent="1">
          <mxGeometry relative="1" as="geometry">
            <mxPoint x="550" y="1190" as="sourcePoint" />
            <mxPoint x="568" y="1189.89" as="targetPoint" />
          </mxGeometry>
        </mxCell>
        <mxCell id="ympd51Vh-eKGF469arWQ-139" value="create &#xa;notification" style="text;strokeColor=none;fillColor=none;spacingLeft=4;spacingRight=4;overflow=hidden;rotatable=0;points=[[0,0.5],[1,0.5]];portConstraint=eastwest;fontSize=12;align=center;" vertex="1" parent="1">
          <mxGeometry x="498" y="1195" width="150" height="45" as="geometry" />
        </mxCell>
        <mxCell id="ympd51Vh-eKGF469arWQ-140" value="" style="line;strokeWidth=1;rotatable=0;dashed=0;labelPosition=right;align=left;verticalAlign=middle;spacingTop=0;spacingLeft=6;points=[];portConstraint=eastwest;direction=north;" vertex="1" parent="1">
          <mxGeometry x="742" y="952" width="80" height="280" as="geometry" />
        </mxCell>
        <mxCell id="ympd51Vh-eKGF469arWQ-141" value="" style="line;strokeWidth=1;rotatable=0;dashed=0;labelPosition=right;align=left;verticalAlign=middle;spacingTop=0;spacingLeft=6;points=[];portConstraint=eastwest;direction=east;spacing=1;" vertex="1" parent="1">
          <mxGeometry x="782" y="913" width="10" height="80" as="geometry" />
        </mxCell>
        <mxCell id="ympd51Vh-eKGF469arWQ-142" value="" style="line;strokeWidth=1;rotatable=0;dashed=0;labelPosition=right;align=left;verticalAlign=middle;spacingTop=0;spacingLeft=6;points=[];portConstraint=eastwest;direction=north;" vertex="1" parent="1">
          <mxGeometry x="630" y="1150" width="80" height="81" as="geometry" />
        </mxCell>
        <mxCell id="ympd51Vh-eKGF469arWQ-143" value="" style="rounded=0;orthogonalLoop=1;jettySize=auto;html=1;endArrow=none;endFill=0;sketch=0;sourcePerimeterSpacing=0;targetPerimeterSpacing=0;exitX=0;exitY=0.5;exitDx=0;exitDy=0;exitPerimeter=0;" edge="1" target="ympd51Vh-eKGF469arWQ-145" parent="1" source="ympd51Vh-eKGF469arWQ-142">
          <mxGeometry relative="1" as="geometry">
            <mxPoint x="709" y="1231" as="sourcePoint" />
          </mxGeometry>
        </mxCell>
        <mxCell id="ympd51Vh-eKGF469arWQ-144" value="" style="rounded=0;orthogonalLoop=1;jettySize=auto;html=1;endArrow=halfCircle;endFill=0;entryX=0.5;entryY=0.5;endSize=6;strokeWidth=1;sketch=0;exitX=0.001;exitY=0.496;exitDx=0;exitDy=0;exitPerimeter=0;" edge="1" target="ympd51Vh-eKGF469arWQ-145" parent="1" source="ympd51Vh-eKGF469arWQ-140">
          <mxGeometry relative="1" as="geometry">
            <mxPoint x="749" y="1231" as="sourcePoint" />
          </mxGeometry>
        </mxCell>
        <mxCell id="ympd51Vh-eKGF469arWQ-145" value="" style="ellipse;whiteSpace=wrap;html=1;align=center;aspect=fixed;resizable=0;points=[];outlineConnect=0;sketch=0;" vertex="1" parent="1">
          <mxGeometry x="721" y="1226" width="10" height="10" as="geometry" />
        </mxCell>
        <mxCell id="ympd51Vh-eKGF469arWQ-147" value="create &#xa;notification" style="text;strokeColor=none;fillColor=none;spacingLeft=4;spacingRight=4;overflow=hidden;rotatable=0;points=[[0,0.5],[1,0.5]];portConstraint=eastwest;fontSize=12;align=center;" vertex="1" parent="1">
          <mxGeometry x="651" y="1236" width="150" height="45" as="geometry" />
        </mxCell>
        <mxCell id="ympd51Vh-eKGF469arWQ-148" value="use service" style="text;strokeColor=none;fillColor=none;spacingLeft=4;spacingRight=4;overflow=hidden;rotatable=0;points=[[0,0.5],[1,0.5]];portConstraint=eastwest;fontSize=12;align=center;" vertex="1" parent="1">
          <mxGeometry x="410" y="1000" width="150" height="45" as="geometry" />
        </mxCell>
        <mxCell id="ympd51Vh-eKGF469arWQ-149" value="use service" style="text;strokeColor=none;fillColor=none;spacingLeft=4;spacingRight=4;overflow=hidden;rotatable=0;points=[[0,0.5],[1,0.5]];portConstraint=eastwest;fontSize=12;align=center;" vertex="1" parent="1">
          <mxGeometry x="630" y="1000" width="150" height="45" as="geometry" />
        </mxCell>
        <mxCell id="ympd51Vh-eKGF469arWQ-150" value="use service" style="text;strokeColor=none;fillColor=none;spacingLeft=4;spacingRight=4;overflow=hidden;rotatable=0;points=[[0,0.5],[1,0.5]];portConstraint=eastwest;fontSize=12;align=center;" vertex="1" parent="1">
          <mxGeometry x="850" y="1000" width="150" height="45" as="geometry" />
        </mxCell>
        <mxCell id="ympd51Vh-eKGF469arWQ-151" value="use service" style="text;strokeColor=none;fillColor=none;spacingLeft=4;spacingRight=4;overflow=hidden;rotatable=0;points=[[0,0.5],[1,0.5]];portConstraint=eastwest;fontSize=12;align=center;" vertex="1" parent="1">
          <mxGeometry x="1080" y="1000" width="150" height="45" as="geometry" />
        </mxCell>
        <mxCell id="ympd51Vh-eKGF469arWQ-152" value="use service" style="text;strokeColor=none;fillColor=none;spacingLeft=4;spacingRight=4;overflow=hidden;rotatable=0;points=[[0,0.5],[1,0.5]];portConstraint=eastwest;fontSize=12;align=center;" vertex="1" parent="1">
          <mxGeometry x="1290" y="1000" width="150" height="45" as="geometry" />
        </mxCell>
        <mxCell id="ympd51Vh-eKGF469arWQ-153" value="" style="verticalLabelPosition=bottom;verticalAlign=top;html=1;shape=mxgraph.basic.rect;fillColor2=none;strokeWidth=1;size=20;indent=5;" vertex="1" parent="1">
          <mxGeometry x="240" y="725" width="40" height="40" as="geometry" />
        </mxCell>
        <mxCell id="ympd51Vh-eKGF469arWQ-154" value="" style="verticalLabelPosition=bottom;verticalAlign=top;html=1;shape=mxgraph.basic.rect;fillColor2=none;strokeWidth=1;size=20;indent=5;" vertex="1" parent="1">
          <mxGeometry x="640" y="680" width="40" height="40" as="geometry" />
        </mxCell>
        <mxCell id="ympd51Vh-eKGF469arWQ-155" value="" style="verticalLabelPosition=bottom;verticalAlign=top;html=1;shape=mxgraph.basic.rect;fillColor2=none;strokeWidth=1;size=20;indent=5;" vertex="1" parent="1">
          <mxGeometry x="860" y="677" width="40" height="40" as="geometry" />
        </mxCell>
        <mxCell id="ympd51Vh-eKGF469arWQ-156" value="" style="verticalLabelPosition=bottom;verticalAlign=top;html=1;shape=mxgraph.basic.rect;fillColor2=none;strokeWidth=1;size=20;indent=5;" vertex="1" parent="1">
          <mxGeometry x="419" y="1295" width="40" height="40" as="geometry" />
        </mxCell>
        <mxCell id="ympd51Vh-eKGF469arWQ-157" value="" style="verticalLabelPosition=bottom;verticalAlign=top;html=1;shape=mxgraph.basic.rect;fillColor2=none;strokeWidth=1;size=20;indent=5;" vertex="1" parent="1">
          <mxGeometry x="1080" y="677" width="40" height="40" as="geometry" />
        </mxCell>
        <mxCell id="ympd51Vh-eKGF469arWQ-159" value="" style="verticalLabelPosition=bottom;verticalAlign=top;html=1;shape=mxgraph.basic.rect;fillColor2=none;strokeWidth=1;size=20;indent=5;" vertex="1" parent="1">
          <mxGeometry x="1520" y="730" width="40" height="40" as="geometry" />
        </mxCell>
      </root>
    </mxGraphModel>
  </diagram>
</mxfile>
